<svg xmlns="http://www.w3.org/2000/svg" width="600" height="400" viewBox="0 0 600 400">
  <defs>
    <linearGradient id="gradient" x1="0%" y1="0%" x2="100%" y2="100%">
      <stop offset="0%" stop-color="#4a6bff" />
      <stop offset="100%" stop-color="#6a11cb" />
    </linearGradient>
  </defs>
  <rect width="600" height="400" fill="#f8f9fa" />
  <rect x="50" y="50" width="200" height="300" rx="20" ry="20" fill="white" stroke="url(#gradient)" stroke-width="4" />
  <rect x="350" y="50" width="200" height="300" rx="20" ry="20" fill="white" stroke="url(#gradient)" stroke-width="4" />
  
  <!-- Phone 1 content -->
  <rect x="70" y="80" width="160" height="30" rx="5" ry="5" fill="url(#gradient)" opacity="0.7" />
  <rect x="70" y="130" width="160" height="60" rx="5" ry="5" fill="#e9ecef" />
  <rect x="70" y="210" width="160" height="60" rx="5" ry="5" fill="#e9ecef" />
  <rect x="70" y="290" width="70" height="30" rx="15" ry="15" fill="url(#gradient)" />
  
  <!-- Phone 2 content -->
  <rect x="370" y="80" width="160" height="30" rx="5" ry="5" fill="url(#gradient)" opacity="0.7" />
  <circle cx="450" cy="170" r="50" fill="#e9ecef" />
  <rect x="400" y="240" width="100" height="15" rx="5" ry="5" fill="#e9ecef" />
  <rect x="400" y="265" width="100" height="15" rx="5" ry="5" fill="#e9ecef" />
  <rect x="400" y="290" width="100" height="15" rx="5" ry="5" fill="#e9ecef" />
  
  <!-- Text -->
  <text x="300" y="380" font-family="Arial, sans-serif" font-size="14" text-anchor="middle" fill="#6c757d">App Screenshots</text>
</svg> 